TITLE ""
FILE "DISC2Track02.mp3" MP3
  TRACK 01 AUDIO
    TITLE "DISC2Track02_01"
    INDEX 01 00:00:00
  TRACK 02 AUDIO
    TITLE "DISC2Track02_02"
    INDEX 01 00:01:43
  TRACK 03 AUDIO
    TITLE "DISC2Track02_03"
    INDEX 01 00:01:53
  TRACK 04 AUDIO
    TITLE "DISC2Track02_04"
    INDEX 01 00:04:57
  TRACK 05 AUDIO
    TITLE "DISC2Track02_05"
    INDEX 01 00:07:61
  TRACK 06 AUDIO
    TITLE "DISC2Track02_06"
    INDEX 01 00:10:26
  TRACK 07 AUDIO
    TITLE "DISC2Track02_07"
    INDEX 01 00:10:42
  TRACK 08 AUDIO
    TITLE "DISC2Track02_08"
    INDEX 01 00:13:01
  TRACK 09 AUDIO
    TITLE "DISC2Track02_09"
    INDEX 01 00:15:20
  TRACK 10 AUDIO
    TITLE "DISC2Track02_10"
    INDEX 01 00:17:17
  TRACK 11 AUDIO
    TITLE "DISC2Track02_11"
    INDEX 01 00:17:28
  TRACK 12 AUDIO
    TITLE "DISC2Track02_12"
    INDEX 01 00:21:03
  TRACK 13 AUDIO
    TITLE "DISC2Track02_13"
    INDEX 01 00:24:68
  TRACK 14 AUDIO
    TITLE "DISC2Track02_14"
    INDEX 01 00:28:30
  TRACK 15 AUDIO
    TITLE "DISC2Track02_15"
    INDEX 01 00:28:48
  TRACK 16 AUDIO
    TITLE "DISC2Track02_16"
    INDEX 01 00:31:68
  TRACK 17 AUDIO
    TITLE "DISC2Track02_17"
    INDEX 01 00:34:11
  TRACK 18 AUDIO
    TITLE "DISC2Track02_18"
    INDEX 01 00:36:10
  TRACK 19 AUDIO
    TITLE "DISC2Track02_19"
    INDEX 01 00:36:26
  TRACK 20 AUDIO
    TITLE "DISC2Track02_20"
    INDEX 01 00:37:68
  TRACK 21 AUDIO
    TITLE "DISC2Track02_21"
    INDEX 01 00:40:18
  TRACK 22 AUDIO
    TITLE "DISC2Track02_22"
    INDEX 01 00:42:03
  TRACK 23 AUDIO
    TITLE "DISC2Track02_23"
    INDEX 01 00:42:19
  TRACK 24 AUDIO
    TITLE "DISC2Track02_24"
    INDEX 01 00:45:58
  TRACK 25 AUDIO
    TITLE "DISC2Track02_25"
    INDEX 01 00:48:43
  TRACK 26 AUDIO
    TITLE "DISC2Track02_26"
    INDEX 01 00:51:02
  TRACK 27 AUDIO
    TITLE "DISC2Track02_27"
    INDEX 01 00:51:17
  TRACK 28 AUDIO
    TITLE "DISC2Track02_28"
    INDEX 01 00:54:08
  TRACK 29 AUDIO
    TITLE "DISC2Track02_29"
    INDEX 01 00:56:68
  TRACK 30 AUDIO
    TITLE "DISC2Track02_30"
    INDEX 01 00:59:27
  TRACK 31 AUDIO
    TITLE "DISC2Track02_31"
    INDEX 01 00:59:42
  TRACK 32 AUDIO
    TITLE "DISC2Track02_32"
    INDEX 01 01:02:41
  TRACK 33 AUDIO
    TITLE "DISC2Track02_33"
    INDEX 01 01:05:31
  TRACK 34 AUDIO
    TITLE "DISC2Track02_34"
    INDEX 01 01:07:69
  TRACK 35 AUDIO
    TITLE "DISC2Track02_35"
    INDEX 01 01:08:12
  TRACK 36 AUDIO
    TITLE "DISC2Track02_36"
    INDEX 01 01:11:22
  TRACK 37 AUDIO
    TITLE "DISC2Track02_37"
    INDEX 01 01:14:46
  TRACK 38 AUDIO
    TITLE "DISC2Track02_38"
    INDEX 01 01:17:42
  TRACK 39 AUDIO
    TITLE "DISC2Track02_39"
    INDEX 01 01:17:60
  TRACK 40 AUDIO
    TITLE "DISC2Track02_40"
    INDEX 01 01:21:09
  TRACK 41 AUDIO
    TITLE "DISC2Track02_41"
    INDEX 01 01:24:37
  TRACK 42 AUDIO
    TITLE "DISC2Track02_42"
    INDEX 01 01:27:35
  TRACK 43 AUDIO
    TITLE "DISC2Track02_43"
    INDEX 01 01:27:49
  TRACK 44 AUDIO
    TITLE "DISC2Track02_44"
    INDEX 01 01:30:61
  TRACK 45 AUDIO
    TITLE "DISC2Track02_45"
    INDEX 01 01:34:13
  TRACK 46 AUDIO
    TITLE "DISC2Track02_46"
    INDEX 01 01:37:14
  TRACK 47 AUDIO
    TITLE "DISC2Track02_47"
    INDEX 01 01:37:29
  TRACK 48 AUDIO
    TITLE "DISC2Track02_48"
    INDEX 01 01:40:71
  TRACK 49 AUDIO
    TITLE "DISC2Track02_49"
    INDEX 01 01:44:53
  TRACK 50 AUDIO
    TITLE "DISC2Track02_50"
    INDEX 01 01:47:73
